<?xml version="1.0" encoding="UTF-8"?>
<svg id="Layer_1" xmlns="http://www.w3.org/2000/svg" version="1.1" viewBox="0 0 429 470">
  <!-- Generator: Adobe Illustrator 29.5.1, SVG Export Plug-In . SVG Version: 2.1.0 Build 141)  -->
  <path d="M102.88,40.2h40l.73,11.57-1.55.16c-3.91-8.88-9.62-8.88-16.06-8.88h-3.02c-3.99,0-6.76-.16-7.99,1.13-.89.97-.89,2.86-.89,7.09v12.38h7.25c2.68,0,6.2-.08,7.75-.32,2.6-.5,4.65-1.31,6.2-4.57h1.13v12.96h-1.13c-2.52-5.86-7.91-5.29-12.38-5.29h-8.8v22.32c0,4.49.08,6.52,3.66,7.41v.97h-14.9v-1.13c3.26-.73,3.26-3.26,3.26-7.25v-41.31c0-3.1-.08-5.3-3.26-6.1v-1.13h0ZM188.28,45.16l-2.76,9.62h-1.13c-2.28-6.68-5.05-11.49-12.22-13.36-4.47-1.13-10.19-.97-14.75,3.18-7.83,7.33-6.84,21.58-5.46,29.01,1.13,6.36,4.07,14.9,12.54,18.32,5.13,2.04,13.12,1.55,19.23-2.76,2.2-1.55,3.83-3.42,5.7-5.78l1.23.89c-6.44,9.86-15.48,13.93-23.23,13.77-6.93-.08-14.82-2.86-19.87-11.25-6.2-10.19-5.86-23.63-1.05-33.56,4.57-9.28,10.83-13.77,19.39-14.51,7.41-.73,14.17.73,22.41,6.44l-.03-.02ZM198.7,40.2h12.64l13.2,45.47,12.38-45.47h11.9v1.13c-3.26.81-3.26,3.02-2.76,6.52l5.62,39.92c.65,4.23,1.05,7.41,4.57,8.23v1.13h-15.32v-1.13c4.31-1.39,3.91-3.26,3.26-7.83l-5.86-41.06-14.09,50.67h-3.66l-15.32-49.78-4.57,35.27c-.81,6.36-1.47,9.94,4.07,12.72v1.13h-13.77v-1.13c4.57-1.21,5.46-4.47,6.52-11.73l4.23-32.09c.24-1.87.5-4.07.5-5.7,0-2.2-.5-4.31-3.5-5.13v-1.13l-.03-.02ZM268.08,40.2h12.62l13.2,45.47,12.38-45.47h11.9v1.13c-3.26.81-3.26,3.02-2.76,6.52l5.62,39.92c.65,4.23,1.05,7.41,4.57,8.23v1.13h-15.32v-1.13c4.31-1.39,3.91-3.26,3.26-7.83l-5.86-41.06-14.09,50.67h-3.67l-15.32-49.78-4.57,35.27c-.81,6.36-1.47,9.94,4.07,12.72v1.13h-13.77v-1.13c4.57-1.21,5.46-4.47,6.52-11.73l4.23-32.09c.24-1.87.5-4.07.5-5.7,0-2.2-.5-4.31-3.5-5.13v-1.15ZM70.87,156.97l14.82-45.78h5.21l16.45,50.51c1.05,3.34,2.36,5.46,4.73,6.2v1.13h-15.4v-1.13c3.26-.73,3.26-2.03,2.12-5.94l-3.34-11.25h-19.39l-.81,2.6c-1.71,5.13-4.57,12.38,1.71,14.59v1.13h-14.43v-1.13c5.78-2.52,6.44-5.05,8.31-10.91l.02-.02ZM76.91,148.09h17.76l-8.55-28.52-9.2,28.52h-.02ZM162.68,169.68h-3.5l-34.95-49.12v36.09c0,6.28-.08,9.62,5.46,11.25v1.13h-14.51v-1.13c5.54-1.63,5.46-4.97,5.46-11.25v-32.19c0-6.28.08-9.62-5.46-11.25v-1.13h12.46l31.53,44.89v-32.43c0-6.28.08-9.62-5.54-11.25v-1.13h14.59v1.13c-5.62,1.63-5.54,4.97-5.54,11.25v45.15ZM171.83,169.04v-1.13c3.26-.81,3.26-2.94,3.26-7.01v-41.47c0-3.18-.16-5.46-3.26-6.2v-1.13h14.51c11.09,0,23.63.08,31.61,13.36,5.86,9.54,6.44,21.58,1.21,31.04-7.25,12.54-21.84,12.54-30.23,12.54h-17.11v.02ZM185.6,115.01c-2.86,1.71-2.52,5.78-2.52,8.07v34.46c0,4.47-.32,6.92,1.79,8.31,3.34,2.44,13.53.73,17.03-.58,6.44-2.36,8.64-5.78,10.43-11.49,2.6-8.23,2.36-24.68-3.83-32.83-4.73-6.28-12.8-7.01-17.68-6.84-2.12.08-3.99.16-5.21.89h0ZM255.52,119c0-4.07-.89-5.13-3.26-5.78v-1.13h14.51v1.13c-2.36.65-3.26,1.71-3.26,5.78v43.02c0,4.15.89,5.13,3.26,5.86v1.13h-14.51v-1.13c2.36-.73,3.26-1.71,3.26-5.86v-43.02h0ZM269.9,112.08h14.98v1.13c-4.15,1.39-3.18,4.39-1.95,7.91l13.85,38.71,10.59-34.06c1.55-4.89,1.95-8.23.24-10.75-.81-1.13-1.87-1.55-2.6-1.79v-1.13h13.85v1.13c-3.83,1.05-5.46,4.57-7.25,10.19l-14.98,46.52h-4.57l-17.6-49.86c-1.21-3.5-2.28-5.54-4.57-6.84v-1.13l.02-.03ZM321.57,112.08h40l.73,11.57-1.55.16c-3.91-8.88-9.62-8.88-16.06-8.88h-3.02c-3.99,0-6.76-.16-7.99,1.13-.89.97-.89,2.84-.89,7.09v12.38h7.25c2.68,0,6.2-.08,7.75-.32,2.6-.5,4.65-1.31,6.2-4.57h1.13v12.96h-1.13c-2.52-5.86-7.91-5.3-12.38-5.3h-8.8v18.5c0,3.91-.16,6.52,1.21,7.83,1.47,1.47,5.05,1.21,7.91,1.21h4.15c7.91,0,11.49-.32,17.92-9.2l1.47.58-3.18,11.82h-40.74v-1.13c3.26-.73,3.26-3.26,3.26-7.25v-41.31c0-3.1-.08-5.3-3.26-6.1v-1.15ZM131.49,221.18l-2.28,9.38-1.39-.16c-2.52-6.44-4.39-10.59-11.65-12.06-3.18-.58-7.57-.24-10.59,2.76-2.6,2.6-3.26,5.7-2.52,8.47,1.21,5.05,6.02,7.65,11.98,9.94l5.78,2.28c6.52,2.52,13.77,6.93,14.09,15.06.24,6.02-1.21,11.09-7.01,15.16-6.68,4.81-18.58,3.91-25.26.58-1.63-.81-3.83-2.03-7.01-4.39l3.18-10.91,1.31.24c1.39,6.1,4.31,12.72,11.49,15.06,3.26.97,9.86.73,13.45-2.36,3.58-3.02,4.31-7.33,3.58-10.67-.97-4.49-5.38-7.83-11.09-10.19l-6.02-2.44c-7.57-3.18-13.04-6.2-13.93-14.67-.42-4.39,1.39-10.1,7.01-13.77,6.1-3.99,16.69-3.1,23.13.42,1.13.58,1.71.89,3.75,2.28h0ZM139.1,217.52h40l.73,11.57-1.55.16c-3.91-8.88-9.62-8.88-16.06-8.88h-3.02c-3.99,0-6.76-.16-7.99,1.13-.89.97-.89,2.84-.89,7.09v12.38h7.25c2.68,0,6.2-.08,7.75-.32,2.6-.5,4.65-1.31,6.2-4.57h1.13v12.96h-1.13c-2.52-5.86-7.91-5.3-12.38-5.3h-8.8v18.5c0,3.91-.16,6.52,1.21,7.83,1.47,1.47,5.05,1.21,7.91,1.21h4.15c7.91,0,11.49-.32,17.92-9.2l1.47.58-3.18,11.82h-40.74v-1.13c3.26-.73,3.26-3.26,3.26-7.25v-41.31c0-3.1-.08-5.3-3.26-6.1v-1.15ZM205.95,216.13c5.86-.89,15.32.65,21.84,7.91,7.49,8.39,9.12,20.61,6.76,29.57-2.28,8.88-7.41,17.43-17.27,20.61-6.2,2.03-15.72,1.79-22.73-3.66-9.62-7.33-11.41-19.95-10.59-27.94.81-8.72,5.21-18.66,14.35-23.79,2.36-1.39,4.97-2.28,7.65-2.68v-.02ZM192.52,242.04c-.5,6.76-.73,22.49,8.39,28.76,4.15,2.94,11.57,2.52,14.9,1.05,7.99-3.5,9.86-12.22,10.67-18.16.81-5.54,1.79-25.02-7.01-32.17-4.31-3.58-10.91-3.83-14.82-2.44-10.27,3.75-11.73,17.19-12.14,22.97h.02ZM282.25,227.94c0-4.73-1.79-8.55-4.89-9.28v-1.13h12.96v1.13c-3.26.73-4.89,4.57-4.89,9.28v24.2c0,7.65.24,15.64-8.8,20.78-6.28,3.5-18.58,3.1-24.84-.58-8.47-4.89-8.39-11.9-8.39-18.82v-28.12c0-3.02.24-5.94-3.26-6.76v-1.13h14.51v1.13c-2.76.73-3.26,2.36-3.26,5.54v29.91c-.08,4.65-.32,12.38,6.2,16.21,4.89,2.94,12.72,2.76,17.68-.08,7.09-4.07,7.01-11.49,7.01-17.43v-24.86l-.03-.02ZM297.11,224.44c0-4.07-.89-5.13-3.26-5.78v-1.13h14.51v1.13c-2.36.65-3.26,1.71-3.26,5.78v37.8c0,3.91-.16,6.52,1.21,7.83,1.47,1.47,5.05,1.21,7.91,1.21h1.05c7.99,0,11.57-.32,18-9.2l1.47.58-3.26,11.82h-37.64v-1.13c3.26-.73,3.26-3.26,3.26-7.25v-41.65ZM62.19,289.41h40l.73,11.57-1.55.16c-3.91-8.88-9.62-8.88-16.06-8.88h-3.02c-3.99,0-6.76-.16-7.99,1.13-.89.97-.89,2.86-.89,7.09v12.38h7.25c2.68,0,6.2-.08,7.75-.32,2.6-.5,4.65-1.31,6.2-4.57h1.13v12.96h-1.13c-2.52-5.86-7.91-5.3-12.38-5.3h-8.8v22.32c0,4.47.08,6.52,3.67,7.41v.97h-14.9v-1.13c3.26-.73,3.26-3.26,3.26-7.25v-41.31c0-3.1-.08-5.3-3.26-6.12v-1.13l-.02.03ZM100.07,334.3l14.82-45.78h5.21l16.45,50.51c1.05,3.34,2.36,5.46,4.73,6.2v1.13h-15.4v-1.13c3.26-.73,3.26-2.04,2.12-5.94l-3.34-11.25h-19.39l-.81,2.6c-1.71,5.13-4.57,12.38,1.71,14.59v1.13h-14.43v-1.13c5.78-2.52,6.44-5.05,8.31-10.91l.02-.02ZM106.09,325.42h17.76l-8.55-28.52-9.2,28.52h-.02ZM177.92,293.07l-2.28,9.36-1.39-.16c-2.52-6.44-4.39-10.59-11.65-12.06-3.18-.58-7.57-.24-10.59,2.76-2.6,2.6-3.26,5.7-2.52,8.47,1.21,5.05,6.02,7.65,11.98,9.94l5.78,2.28c6.52,2.52,13.77,6.92,14.09,15.06.24,6.02-1.21,11.09-7.01,15.16-6.68,4.81-18.58,3.91-25.26.58-1.63-.81-3.83-2.03-7.01-4.39l3.18-10.91,1.31.24c1.39,6.12,4.31,12.72,11.49,15.06,3.26.97,9.86.73,13.45-2.36,3.58-3.02,4.31-7.33,3.58-10.67-.97-4.47-5.38-7.83-11.09-10.19l-6.02-2.44c-7.57-3.18-13.04-6.2-13.93-14.67-.4-4.39,1.39-10.1,7.01-13.77,6.1-3.99,16.71-3.1,23.13.42,1.13.58,1.71.89,3.75,2.28v.02ZM196.75,313.69h26.73v-17.35c0-4.07-.89-5.13-3.26-5.78v-1.13h14.51v1.13c-2.36.65-3.26,1.71-3.26,5.78v43.02c0,4.15.89,5.13,3.26,5.86v1.13h-14.51v-1.13c2.36-.73,3.26-1.71,3.26-5.86v-23.05h-26.73v23.05c0,4.15.89,5.13,3.26,5.86v1.13h-14.51v-1.13c2.36-.73,3.26-1.71,3.26-5.86v-43.02c0-4.07-.89-5.13-3.26-5.78v-1.13h14.51v1.13c-2.36.65-3.26,1.71-3.26,5.78v17.35ZM242.31,296.33c0-4.07-.89-5.13-3.26-5.78v-1.13h14.51v1.13c-2.36.65-3.26,1.71-3.26,5.78v43.02c0,4.15.89,5.13,3.26,5.86v1.13h-14.51v-1.13c2.36-.73,3.26-1.71,3.26-5.86v-43.02h0ZM279.6,288.02c5.86-.89,15.32.65,21.84,7.91,7.49,8.39,9.12,20.61,6.76,29.57-2.28,8.88-7.41,17.43-17.27,20.61-6.2,2.04-15.72,1.79-22.73-3.66-9.62-7.33-11.41-19.95-10.59-27.94.81-8.72,5.21-18.66,14.35-23.79,2.36-1.39,4.97-2.28,7.65-2.68v-.02ZM266.15,313.93c-.5,6.76-.73,22.49,8.39,28.76,4.15,2.94,11.57,2.52,14.9,1.05,7.99-3.5,9.86-12.22,10.67-18.16.81-5.54,1.79-25.02-7.01-32.17-4.31-3.58-10.91-3.83-14.82-2.44-10.27,3.75-11.73,17.19-12.14,22.97h.02ZM361.26,347h-3.5l-34.95-49.12v36.09c0,6.28-.08,9.62,5.46,11.25v1.13h-14.51v-1.13c5.54-1.63,5.46-4.97,5.46-11.25v-32.17c0-6.28.08-9.62-5.46-11.25v-1.13h12.46l31.53,44.89v-32.43c0-6.28.08-9.62-5.54-11.25v-1.13h14.59v1.13c-5.62,1.63-5.54,4.97-5.54,11.25v45.13ZM104.57,361.3h15.56v1.13c-4.15,1.71-3.42,3.5-1.13,10.02l13.12,36.58,8.88-28.68-2.94-9.86c-1.39-4.73-2.36-6.76-5.13-8.07v-1.13h14.9v1.13c-3.75,1.87-3.02,4.07-1.71,8.31l11.41,38.05,10.19-31.38c.89-2.76,1.79-5.94,1.87-7.75.24-2.76-.5-5.54-3.66-7.25v-1.13h13.85v1.13c-4.07,2.28-5.3,4.73-6.93,9.78l-15.32,46.94h-4.81l-10.02-33.32-10.83,33.32h-4.47l-17.68-50.02c-1.21-3.26-2.12-5.05-5.13-6.68v-1.13h-.02ZM182.41,361.3h40l.73,11.57-1.55.16c-3.91-8.88-9.62-8.88-16.06-8.88h-3.02c-3.99,0-6.76-.16-7.99,1.13-.89.97-.89,2.86-.89,7.09v12.38h7.25c2.68,0,6.2-.08,7.75-.32,2.6-.5,4.65-1.31,6.2-4.57h1.13v12.96h-1.13c-2.52-5.86-7.91-5.3-12.38-5.3h-8.8v18.5c0,3.91-.16,6.52,1.21,7.83,1.47,1.47,5.05,1.21,7.91,1.21h4.15c7.91,0,11.49-.32,17.92-9.2l1.47.58-3.18,11.81h-40.74v-1.13c3.26-.73,3.26-3.26,3.26-7.25v-41.31c0-3.1-.08-5.3-3.26-6.12v-1.13.02ZM229.68,361.3h40l.73,11.57-1.55.16c-3.91-8.88-9.62-8.88-16.06-8.88h-3.02c-3.99,0-6.76-.16-7.99,1.13-.89.97-.89,2.86-.89,7.09v12.38h7.25c2.68,0,6.2-.08,7.75-.32,2.6-.5,4.65-1.31,6.2-4.57h1.13v12.96h-1.13c-2.52-5.86-7.91-5.3-12.38-5.3h-8.8v18.5c0,3.91-.16,6.52,1.21,7.83,1.47,1.47,5.05,1.21,7.91,1.21h4.15c7.91,0,11.49-.32,17.92-9.2l1.47.58-3.18,11.81h-40.74v-1.13c3.26-.73,3.26-3.26,3.26-7.25v-41.31c0-3.1-.08-5.3-3.26-6.12v-1.13.02ZM288.18,394.53l15.06-16.61c5.21-5.78,8.31-9.94,7.57-12.72,0-1.05-.89-1.95-2.76-2.76v-1.13h15.72v1.13c-4.15,1.95-8.39,5.7-12.72,10.67l-9.62,11.25,16.61,27.38c2.2,3.42,3.18,4.47,5.7,5.38v1.13h-16.29v-1.13c1.55-.32,2.6-.73,2.6-2.2,0-1.13-.58-2.86-3.18-7.17l-10.67-17.6-8.07,8.47v12.62c0,4.15.89,5.13,3.26,5.86v1.13h-14.51v-1.13c2.36-.73,3.26-1.71,3.26-5.86v-43.02c0-4.07-.89-5.13-3.26-5.78v-1.13h14.51v1.13c-2.36.65-3.26,1.71-3.26,5.78v26.31l.03.02ZM148.78,444.11l-.67,2.76-.42-.05c-.73-1.89-1.29-3.12-3.43-3.55-.93-.18-2.22-.08-3.12.81-.77.77-.96,1.68-.73,2.49.37,1.49,1.77,2.25,3.53,2.92l1.71.67c1.92.75,4.04,2.04,4.15,4.44.06,1.77-.37,3.26-2.06,4.46-1.96,1.42-5.46,1.15-7.43.18-.48-.24-1.13-.61-2.06-1.29l.94-3.21.38.08c.42,1.79,1.28,3.74,3.39,4.43.96.29,2.91.22,3.96-.69,1.05-.88,1.26-2.16,1.05-3.13-.29-1.33-1.58-2.3-3.26-3l-1.77-.72c-2.24-.93-3.83-1.82-4.11-4.31-.11-1.29.42-2.97,2.06-4.06,1.79-1.18,4.9-.91,6.81.11.34.18.51.27,1.1.67l-.03-.02ZM151.01,443.03h11.77l.21,3.4-.46.05c-1.15-2.6-2.83-2.6-4.71-2.6h-.89c-1.18,0-1.98-.05-2.35.34-.26.29-.26.83-.26,2.08v3.64h2.12c.8,0,1.82-.02,2.28-.1.77-.14,1.36-.38,1.82-1.34h.34v3.82h-.34c-.73-1.73-2.33-1.57-3.64-1.57h-2.59v5.43c0,1.15-.05,1.92.35,2.3.43.43,1.49.37,2.33.37h1.21c2.33,0,3.39-.1,5.27-2.72l.43.18-.94,3.47h-11.98v-.34c.96-.22.96-.96.96-2.14v-12.14c0-.91-.02-1.57-.96-1.79v-.34h.02ZM170.68,442.63c1.73-.27,4.51.19,6.42,2.32,2.2,2.48,2.68,6.07,1.98,8.71-.67,2.62-2.17,5.13-5.08,6.05-1.82.61-4.63.53-6.68-1.07-2.83-2.16-3.35-5.86-3.12-8.21.24-2.57,1.53-5.48,4.22-7,.69-.42,1.45-.67,2.25-.78v-.02ZM166.72,450.25c-.14,1.98-.22,6.61,2.46,8.47,1.21.86,3.4.73,4.38.3,2.35-1.02,2.91-3.59,3.15-5.35.24-1.63.53-7.35-2.06-9.46-1.26-1.05-3.21-1.12-4.36-.72-3.02,1.1-3.45,5.06-3.58,6.76h.02ZM193.13,446.09c0-1.39-.53-2.52-1.44-2.73v-.34h3.82v.34c-.96.21-1.44,1.34-1.44,2.73v7.12c0,2.25.06,4.6-2.59,6.1-1.84,1.02-5.46.91-7.3-.18-2.49-1.44-2.46-3.5-2.46-5.53v-8.26c0-.88.06-1.76-.96-1.98v-.34h4.27v.34c-.81.21-.96.69-.96,1.63v8.8c-.02,1.37-.1,3.64,1.82,4.76,1.44.86,3.74.81,5.19-.02,2.09-1.2,2.06-3.37,2.06-5.13v-7.32l-.02-.02ZM197.49,445.07c0-1.2-.27-1.52-.96-1.71v-.34h4.27v.34c-.69.19-.96.51-.96,1.71v11.12c0,1.15-.05,1.92.37,2.3.43.43,1.49.37,2.33.37h.3c2.35,0,3.4-.1,5.3-2.72l.43.18-.96,3.47h-11.07v-.34c.96-.22.96-.96.96-2.14v-12.24h-.02ZM224.4,456.06c-1.15,1.61-2.24,2.16-3.79,2.04-1.05-.1-2.01-.62-2.59-1.84-.67-1.47-.11-4.15.89-5.61,1.15-1.73,2.56-2.64,4.19-2.59.77.06,1.68.48,2.16,1.41.1.14.11.29.27.8l.53-1.84h1.79l-1.25,4.57c-.43,1.58-.78,2.67-.14,3.27.34.34.89.42,1.49.29,1.15-.29,2.16-1.29,2.73-2.73.67-1.63.62-4.62-.64-6.36-1.76-2.4-5.22-3-7.12-2.88-2.83.16-5.61,1.34-7.49,4.71-1.2,2.3-1.47,5.99-.02,8.61,1.55,2.78,4.66,3.87,7.01,3.98,2.52.13,4.94-.48,7.83-2.27l.56.78c-4.04,2.73-8.79,3.27-12.36,1.71-3.4-1.57-4.98-3.93-5.42-7.11-.34-2.54.43-6.58,3.53-9.06,3.04-2.48,7.75-2.81,10.61-1.79,2.59.91,4.31,2.88,4.86,5.37.43,1.92.1,5.32-1.92,7.27-.97.96-2.8,1.49-3.85,1.23-.99-.27-1.52-.72-1.84-1.95l-.02-.03ZM221.08,450.77c-.93,1.39-1.71,3.88-1.21,5.08.27.58.69.93,1.18,1.02.67.1,1.41-.14,2.01-.69,1.15-1.07,2.01-4.11,1.85-5.3-.13-.64-.46-1.1-1.04-1.39-.56-.27-1.13-.19-1.68.13-.42.24-.77.64-1.1,1.15h-.02ZM237.06,459.78v-.34c.96-.24.96-.86.96-2.06v-12.21c0-.93-.05-1.61-.96-1.82v-.34h4.27c3.26,0,6.95.02,9.3,3.93,1.73,2.81,1.9,6.36.37,9.12-2.14,3.69-6.42,3.69-8.9,3.69h-5.03v.02ZM241.11,443.89c-.85.51-.75,1.71-.75,2.38v10.14c0,1.31-.1,2.03.53,2.44.99.72,3.98.21,5.02-.18,1.89-.69,2.54-1.71,3.07-3.37.77-2.43.69-7.27-1.13-9.66-1.39-1.84-3.77-2.06-5.21-2.01-.62.02-1.18.05-1.53.26h.02ZM253.27,459.78v-.34c.96-.24.96-.86.96-2.06v-12.21c0-.93-.05-1.61-.96-1.82v-.34h4.27c3.26,0,6.95.02,9.3,3.93,1.73,2.81,1.9,6.36.37,9.12-2.14,3.69-6.42,3.69-8.9,3.69h-5.03v.02ZM257.33,443.89c-.83.51-.73,1.71-.73,2.38v10.14c0,1.31-.1,2.03.53,2.44.99.72,3.98.21,5-.18,1.9-.69,2.54-1.71,3.07-3.37.77-2.43.69-7.27-1.13-9.66-1.39-1.84-3.77-2.06-5.21-2.01-.62.02-1.18.05-1.53.26h.02ZM272.79,452.23v5.35c0,.77-.02,1.66.96,1.87v.34h-4.27v-.34c.91-.22.96-.89.96-1.87v-12.49c0-.96-.11-1.52-.96-1.73v-.34s2.65-.1,4.57-.18c3.24-.13,6.31-.13,7.96,2.92.69,1.25.73,2.88-.13,4.22-1.79,2.68-6.28,2.46-8.29,2.3l-.81-.08.02.02ZM278.54,450.84c1.44-1.1,1.58-2.73,1.52-3.82-.11-1.2-.61-2.32-1.93-3.02-1.26-.64-3.71-.77-4.58-.24-.86.48-.73,1.73-.73,2.6v5.13c1.42.29,4.36.38,5.75-.67l-.02.02ZM132.76,22.06v-1.39l2.86-4.01c.46-.62.83-1.2,1.15-1.71.3-.53.54-1.02.73-1.47.18-.46.3-.93.37-1.37.08-.45.13-.89.13-1.37,0-.56-.06-1.04-.19-1.44-.11-.4-.29-.72-.54-.93s-.56-.34-.94-.34c-.5,0-.88.14-1.13.43-.26.27-.45.64-.56,1.1-.1.46-.14.94-.14,1.47-.26,0-.51-.05-.75-.13-.24-.08-.43-.22-.58-.42-.16-.19-.22-.46-.22-.81,0-.5.13-.94.37-1.36.26-.4.64-.72,1.13-.96.51-.26,1.15-.37,1.89-.37s1.39.16,1.92.46c.53.29.93.7,1.2,1.23.29.53.43,1.15.43,1.85,0,.45-.05.88-.14,1.29-.08.4-.21.8-.37,1.2-.16.38-.37.78-.61,1.18-.24.38-.51.78-.81,1.18-.29.4-.61.83-.96,1.26l-2.83,3.79h3.8c.46,0,.78-.13.96-.4.19-.27.34-.65.43-1.13l.08-.4h.81l-.06,3.53h-7.43l.02.02ZM146.17,22.27c-.94,0-1.71-.29-2.28-.88-.56-.59-.99-1.45-1.25-2.59-.26-1.15-.37-2.54-.37-4.2s.13-2.96.37-4.07c.26-1.13.65-2,1.23-2.59.58-.61,1.36-.91,2.33-.91s1.66.3,2.22.89c.58.58.99,1.44,1.25,2.57.26,1.12.4,2.49.4,4.14s-.14,3-.42,4.14c-.26,1.13-.67,2.01-1.25,2.62-.56.59-1.31.89-2.22.89l-.02-.02ZM146.17,21.23c.38,0,.7-.14.96-.43.26-.3.46-.73.62-1.31s.29-1.26.35-2.08c.06-.81.11-1.74.11-2.78s-.03-1.96-.11-2.78c-.06-.81-.18-1.5-.34-2.06-.16-.58-.37-.99-.62-1.29-.26-.29-.58-.43-.96-.43s-.72.14-.97.43-.46.72-.62,1.29c-.16.56-.26,1.25-.34,2.06-.06.81-.11,1.74-.11,2.78s.03,1.96.11,2.78c.06.81.18,1.5.34,2.08s.35,1.01.61,1.31c.26.29.59.43.97.43ZM151.96,22.06v-1.39l2.86-4.01c.46-.62.83-1.2,1.13-1.71.3-.53.54-1.02.73-1.47.18-.46.3-.93.37-1.37.08-.45.13-.89.13-1.37,0-.56-.06-1.04-.19-1.44-.11-.4-.29-.72-.54-.93-.26-.22-.56-.34-.93-.34-.5,0-.88.14-1.15.43-.26.27-.45.64-.56,1.1-.1.46-.14.94-.14,1.47-.26,0-.51-.05-.75-.13-.24-.08-.43-.22-.58-.42-.16-.19-.22-.46-.22-.81,0-.5.13-.94.37-1.36.27-.4.64-.72,1.15-.96.51-.26,1.13-.37,1.89-.37s1.39.16,1.92.46c.53.29.93.7,1.2,1.23.29.53.43,1.15.43,1.85,0,.45-.05.88-.14,1.29-.08.4-.21.8-.37,1.2-.16.38-.37.78-.61,1.18-.24.38-.51.78-.81,1.18-.29.4-.61.83-.96,1.26l-2.83,3.79h3.8c.46,0,.78-.13.96-.4.19-.27.34-.65.43-1.13l.08-.4h.81l-.06,3.53h-7.43l.02.02ZM165.07,22.27c-.83,0-1.5-.1-2.01-.3-.51-.22-.89-.51-1.15-.85-.24-.37-.35-.75-.35-1.17s.13-.72.4-.96.59-.35.97-.35c0,.46.08.89.22,1.29.16.38.42.7.72.93.32.22.7.34,1.17.34.4,0,.77-.11,1.1-.3.34-.22.59-.58.78-1.04.21-.46.3-1.09.3-1.87,0-.65-.1-1.21-.29-1.68s-.5-.83-.89-1.09-.91-.37-1.52-.37h-.78v-.97h.81c.48,0,.89-.13,1.23-.37.35-.26.61-.64.77-1.12.18-.48.27-1.05.27-1.73,0-.81-.14-1.45-.42-1.92s-.7-.69-1.26-.69c-.45,0-.8.14-1.05.42-.26.26-.46.62-.58,1.05-.11.45-.16.94-.16,1.5-.38,0-.73-.1-1.04-.27-.29-.18-.43-.5-.43-.96,0-.51.13-.97.37-1.39.26-.42.65-.75,1.17-.99.51-.26,1.13-.37,1.89-.37,1.01,0,1.82.3,2.44.89.64.58.96,1.42.96,2.54,0,.62-.11,1.2-.34,1.71-.21.51-.5.94-.88,1.31-.37.35-.8.59-1.29.75.35.05.69.16,1.04.3.35.16.65.37.94.67.29.29.51.67.69,1.12.16.46.26,1.02.26,1.68,0,.78-.11,1.45-.35,2.01-.24.54-.54.97-.94,1.31-.38.34-.81.58-1.31.73-.46.16-.96.22-1.45.22v-.05ZM175.65,22.06v-.85h.27c.27,0,.51-.03.7-.11.19-.06.34-.21.43-.4s.14-.48.14-.88v-10.37c0-.38-.05-.67-.16-.88-.1-.21-.24-.35-.42-.42-.18-.06-.38-.11-.62-.11h-.35v-.85h8.5l.11,3.61h-.96l-.08-.89c-.03-.3-.1-.58-.21-.83-.1-.26-.26-.46-.46-.62-.19-.16-.45-.26-.77-.26h-2.65v6.02h3.95v1.02h-3.95v4.46c0,.4.06.7.16.91.11.21.27.35.48.43.21.06.45.11.73.11h.5v.85h-5.34l-.02.05ZM184.12,22.06v-.85h.27c.21,0,.38-.05.51-.13.14-.08.26-.24.37-.48.13-.24.26-.58.37-1.02l3.61-12.36h1.53l3.69,13.02c.06.26.16.45.26.58.1.14.22.24.37.29.16.05.35.08.58.08h.16v.85h-4.76v-.85h.37c.34,0,.58-.06.73-.21.16-.16.26-.35.26-.61,0-.1,0-.21-.05-.34,0-.14-.05-.29-.08-.43-.03-.16-.06-.3-.11-.43l-.56-2.12h-4.22l-.51,1.98c-.03.11-.06.24-.11.4-.03.14-.05.29-.08.43s-.05.27-.05.4c0,.27.08.51.22.69.16.16.43.26.81.26h.43v.85h-4.07l.06.02ZM187.79,16.06h3.59l-1.04-3.96c-.1-.42-.19-.8-.29-1.17s-.18-.69-.26-.99c-.06-.3-.13-.58-.19-.83-.05.19-.1.4-.14.62-.05.21-.1.43-.16.69-.06.24-.11.48-.19.73-.06.26-.11.5-.19.75l-1.13,4.17v-.02ZM196.86,22.06v-.85h.4c.22,0,.42-.03.58-.11.18-.06.32-.21.42-.42.11-.21.16-.51.16-.91v-10.24c0-.42-.05-.73-.16-.94-.1-.21-.24-.35-.43-.42-.18-.06-.38-.11-.62-.11h-.34v-.85h5.03v.85h-.35c-.26,0-.48.03-.67.11-.18.06-.32.21-.42.42-.08.19-.13.48-.13.88v11.57h3.2c.32,0,.58-.08.77-.22.21-.16.37-.37.48-.64.11-.29.19-.62.22-.99l.19-1.55h.81l-.11,4.44h-9.03v-.02ZM207.63,22.06v-.85h.4c.22,0,.42-.03.58-.11.18-.06.32-.21.42-.42.11-.21.16-.51.16-.91v-10.24c0-.42-.06-.73-.16-.94-.1-.21-.24-.35-.43-.42-.18-.06-.38-.11-.62-.11h-.34v-.85h5.03v.85h-.35c-.27,0-.48.03-.67.11-.18.06-.32.21-.42.42-.08.19-.13.48-.13.88v11.57h3.2c.32,0,.58-.08.77-.22.21-.16.37-.37.48-.64.11-.29.19-.62.22-.99l.19-1.55h.81l-.11,4.44h-9.03v-.02ZM223.97,9.19c-.05-.3-.14-.53-.26-.69-.1-.16-.22-.26-.37-.3-.14-.06-.32-.11-.54-.11h-.21v-.85h4.76v.85h-.37c-.34,0-.58.06-.75.19-.16.13-.26.3-.26.54,0,.08,0,.19.02.3,0,.11.03.22.06.35.03.11.05.22.06.34l1.36,6.85c.08.42.16.81.22,1.2.08.37.16.73.21,1.1.06.35.11.69.14,1.02.08-.56.19-1.15.34-1.79.14-.65.29-1.36.46-2.09l2-8.72h1.5l1.82,9.09c.1.46.18.89.26,1.31.08.4.16.78.22,1.17.08.37.14.72.19,1.09.05-.34.11-.65.16-.96.06-.3.11-.62.19-.97.06-.35.14-.73.22-1.17l1.44-6.74c.05-.19.08-.43.13-.7s.06-.5.06-.64c0-.27-.1-.46-.27-.58s-.45-.16-.81-.16h-.37v-.85h4.09v.85h-.3c-.22,0-.42.05-.56.13-.16.06-.29.22-.4.46-.1.24-.19.58-.3,1.04l-2.68,12.36h-1.85l-2.4-11.85-2.59,11.85h-1.85l-2.76-12.88-.02-.05ZM240.75,22.06v-.85h.4c.22,0,.42-.03.58-.11.18-.06.32-.21.42-.42.11-.21.16-.51.16-.91v-10.22c0-.42-.06-.73-.16-.94-.1-.21-.24-.35-.42-.42-.16-.08-.37-.13-.58-.13h-.4v-.85h5.03v.85h-.4c-.24,0-.45.05-.62.13-.16.06-.3.21-.4.42-.1.21-.14.53-.14.94v10.19c0,.4.05.7.14.91s.24.35.42.43c.18.06.38.11.61.11h.4v.85h-5.03v.02ZM247.33,22.06v-.85h.26c.27,0,.51-.03.7-.11.19-.06.34-.21.43-.42.11-.22.16-.54.16-.97v-10.22c0-.42-.05-.72-.16-.91-.1-.21-.24-.34-.43-.4-.18-.06-.4-.11-.64-.11h-.3v-.85h3.27l5.75,11.71v-9.46c0-.4-.05-.7-.16-.89-.1-.21-.24-.35-.43-.42-.18-.06-.4-.11-.64-.11h-.29v-.85h4.15v.85h-.32c-.26,0-.46.05-.67.13-.18.06-.32.21-.43.42-.1.21-.14.53-.14.96v12.48h-1.31l-6.17-12.33v9.98c0,.43.05.75.14.97.1.21.24.35.42.42.19.06.42.11.67.11h.34v.85h-4.17l-.03.03ZM262.22,22.06v-.85h.3c.27,0,.5-.03.7-.08.22-.06.4-.21.51-.4.14-.21.21-.51.21-.91v-11.57h-1.52c-.32,0-.58.08-.77.26-.18.16-.32.37-.42.62-.08.26-.14.54-.16.85l-.08.85h-.91l.08-3.59h9.49l.08,3.59h-.89l-.1-.85c-.03-.3-.1-.59-.19-.85-.08-.26-.22-.46-.42-.62-.18-.16-.43-.26-.77-.26h-1.52v11.47c0,.43.06.75.19.97.13.21.29.35.5.42.22.06.46.11.73.11h.3v.85h-5.38l.02-.02ZM271.07,22.06v-.85h.35c.26,0,.46-.03.64-.11.18-.06.32-.21.42-.4.1-.21.14-.5.14-.88v-10.27c0-.43-.05-.75-.16-.96-.1-.21-.24-.35-.42-.42-.18-.06-.38-.11-.62-.11h-.35v-.85h8.51l.08,3.61h-.96l-.08-.88c0-.3-.08-.59-.19-.85-.1-.26-.26-.46-.46-.62-.19-.16-.46-.26-.81-.26h-2.64v5.54h3.93v.99h-3.93v6.25h3.04c.37,0,.64-.08.85-.22.22-.16.38-.38.5-.64.13-.26.21-.54.26-.85l.08-.88h.96l-.1,3.61h-9.04l.02.03ZM281.84,22.06v-.85h.29c.24,0,.45-.03.64-.08.19-.06.35-.21.46-.4.11-.21.16-.51.16-.91v-10.32c0-.42-.06-.72-.19-.91-.11-.21-.27-.34-.46-.4-.18-.06-.38-.11-.62-.11h-.29v-.85h4.65c1.02,0,1.85.14,2.49.42.65.26,1.13.69,1.44,1.26s.46,1.31.46,2.22c0,.78-.11,1.42-.34,1.95-.22.53-.51.94-.89,1.26-.37.32-.78.56-1.23.73l2.2,4.46c.14.26.27.5.4.7.14.21.27.38.4.54.14.14.27.24.42.3.16.06.32.11.48.11h.06v.85h-.32c-.43,0-.81-.03-1.13-.08s-.62-.14-.88-.27c-.26-.14-.48-.32-.67-.56-.19-.26-.37-.58-.54-.96l-2.16-4.68h-1.36v4.3c0,.4.05.7.14.91.11.19.26.32.43.4.18.05.4.08.64.08h.19v.85h-4.9l.03.03ZM286.18,14.56c.62,0,1.13-.13,1.52-.37.4-.26.69-.64.88-1.13s.29-1.1.29-1.82c0-.67-.1-1.21-.27-1.66-.16-.46-.43-.8-.78-1.02-.37-.22-.83-.34-1.44-.34h-1.04v6.36h.85v-.02ZM112.59,199.39v-.85h.91c.27,0,.51-.03.73-.08.21-.06.37-.21.48-.42.13-.22.19-.56.19-.99v-10.94c-.26.38-.51.73-.77,1.05-.24.3-.46.54-.69.73-.22.18-.45.27-.67.27-.26,0-.46-.1-.62-.27-.16-.19-.22-.45-.22-.77.22-.06.45-.16.69-.27.24-.13.5-.29.78-.5.29-.21.62-.48.97-.81l1.13-1.05h1.13v12.57c0,.43.06.75.16.97.13.21.29.35.5.42s.45.11.73.11h.7v.85h-6.17l.02-.03ZM125.13,199.6c-.94,0-1.71-.29-2.28-.88-.56-.59-.97-1.45-1.25-2.59-.26-1.15-.37-2.56-.37-4.2s.13-2.96.37-4.07c.26-1.13.65-2,1.23-2.59.58-.61,1.36-.91,2.33-.91s1.66.3,2.22.89c.58.58.99,1.44,1.25,2.57.27,1.12.4,2.49.4,4.14s-.14,3-.42,4.14c-.26,1.13-.67,2.01-1.25,2.62-.56.59-1.31.89-2.22.89l-.02-.02ZM125.13,198.56c.38,0,.7-.14.96-.43.27-.3.46-.73.62-1.31.16-.56.29-1.26.35-2.08.06-.81.11-1.74.11-2.78s-.03-1.96-.11-2.78c-.06-.81-.18-1.5-.34-2.06-.16-.56-.35-.99-.62-1.29-.26-.29-.58-.43-.96-.43s-.72.14-.97.43c-.26.29-.46.72-.62,1.29-.16.56-.26,1.25-.34,2.06-.06.81-.11,1.74-.11,2.78s.03,1.96.11,2.78c.06.81.18,1.52.34,2.08s.35,1.01.61,1.31c.27.29.59.43.97.43ZM132.31,199.53c-.3,0-.56-.1-.77-.27-.21-.19-.32-.53-.32-1.02s.11-.81.32-.99c.21-.19.46-.29.77-.29.27,0,.53.1.73.29.22.18.34.51.34.99s-.11.83-.34,1.02c-.21.18-.45.27-.73.27ZM136.51,199.39v-.85h.91c.27,0,.51-.03.73-.08.21-.06.37-.21.48-.42.13-.22.19-.56.19-.99v-10.94c-.27.38-.51.73-.77,1.05-.24.3-.46.54-.69.73-.22.18-.45.27-.67.27-.26,0-.46-.1-.62-.27-.16-.19-.22-.45-.22-.77.22-.06.45-.16.69-.27.24-.13.5-.29.78-.5.29-.21.62-.48.97-.81l1.13-1.05h1.13v12.57c0,.43.05.75.16.97.13.21.29.35.5.42s.45.11.73.11h.7v.85h-6.17l.02-.03ZM146.77,199.39l4.27-13.23h-3.82c-.3,0-.53.1-.67.27-.14.16-.22.45-.26.85l-.08.97h-.88l.1-3.69h7.41v.56l-4.28,14.27h-1.81.02ZM159.48,202.02c-1.07-.5-1.93-1.13-2.59-1.93-.65-.78-1.13-1.77-1.44-2.97-.29-1.18-.43-2.64-.43-4.31s.14-3.12.43-4.3c.3-1.2.78-2.17,1.44-2.96.67-.78,1.53-1.42,2.59-1.92v.88c-.56.43-.99.94-1.33,1.57-.34.61-.58,1.28-.75,2.01-.16.72-.27,1.49-.34,2.28-.06.78-.08,1.6-.08,2.43s.03,1.65.08,2.44.16,1.57.34,2.3c.16.72.42,1.39.75,2s.77,1.13,1.33,1.55v.93ZM160.97,199.39v-.85h.27c.27,0,.51-.03.7-.11.19-.06.34-.21.43-.4s.14-.48.14-.88v-10.37c0-.38-.06-.67-.16-.88-.1-.21-.24-.35-.42-.42s-.38-.1-.62-.1h-.35v-.85h8.5l.11,3.61h-.96l-.08-.89c-.03-.3-.1-.58-.21-.83-.1-.27-.26-.46-.46-.62-.19-.16-.45-.26-.77-.26h-2.65v6.02h3.95v1.02h-3.95v4.47c0,.4.06.7.16.91s.27.35.48.43c.21.06.45.11.73.11h.5v.85h-5.34l-.02.02ZM171.13,199.39v-.85h.06c.26,0,.46-.03.67-.11.19-.06.35-.21.46-.42.13-.22.19-.54.19-.97v-6.52c0-.42-.06-.72-.16-.91-.11-.21-.26-.34-.46-.4-.19-.06-.42-.11-.67-.11h-.06v-.85h2.78l.27,2.24h.06c.16-.45.34-.85.54-1.23.21-.37.46-.67.77-.89.32-.22.7-.34,1.13-.34.56,0,.96.14,1.23.43.27.27.42.65.42,1.12,0,.42-.13.75-.4.99-.26.26-.67.37-1.25.37,0-.38-.03-.7-.08-.94s-.14-.42-.27-.51c-.11-.11-.27-.16-.5-.16-.26,0-.48.13-.67.4-.19.26-.37.61-.5,1.04-.13.42-.22.88-.29,1.39-.06.5-.08.99-.08,1.47v3.48c0,.4.06.7.16.91.11.19.26.32.46.4.19.06.42.08.64.08h.4v.85h-4.86l-.02.05ZM179.37,199.39v-.85h.21c.26,0,.5-.03.69-.11.19-.06.35-.21.46-.42.11-.21.16-.51.16-.91v-6.55c0-.42-.05-.73-.14-.94-.1-.21-.24-.35-.42-.42-.16-.06-.38-.11-.64-.11h-.21v-.85h3.2v8.74c0,.43.05.75.14.97.11.22.26.37.46.46.21.06.45.11.7.11h.21v.85h-4.82v.02ZM181.69,186.07c-.3,0-.56-.1-.75-.27s-.29-.48-.29-.91.1-.75.29-.91c.19-.18.45-.27.75-.27s.56.1.77.27c.21.16.32.46.32.91s-.11.73-.32.91c-.21.18-.46.27-.77.27ZM185.35,201.1c.56-.43.99-.94,1.33-1.55s.58-1.28.75-2c.18-.73.3-1.5.35-2.3s.08-1.61.08-2.44-.03-1.65-.08-2.43c-.06-.8-.18-1.57-.35-2.28-.16-.73-.42-1.41-.75-2.01-.34-.61-.78-1.13-1.33-1.57v-.88c1.07.48,1.92,1.12,2.57,1.92.67.78,1.15,1.76,1.44,2.96.3,1.18.46,2.6.46,4.3s-.16,3.13-.46,4.31c-.29,1.2-.77,2.19-1.44,2.97-.65.78-1.5,1.44-2.57,1.93v-.93ZM195.73,194.34v-1.05h20.93v1.05h-20.93ZM223.3,199.39v-.85h.91c.27,0,.51-.03.72-.08.21-.06.37-.21.48-.42.13-.22.19-.56.19-.99v-10.94c-.26.38-.51.73-.77,1.05-.24.3-.46.54-.69.73-.22.18-.45.27-.67.27-.26,0-.46-.1-.62-.27-.16-.19-.22-.45-.22-.77.22-.06.45-.16.69-.27.24-.13.5-.29.78-.5.29-.21.62-.48.97-.81l1.13-1.05h1.15v12.57c0,.43.05.75.16.97.13.21.29.35.5.42s.45.11.73.11h.7v.85h-6.17l.02-.03ZM235.86,199.6c-.94,0-1.71-.29-2.28-.88-.56-.59-.99-1.45-1.25-2.59-.26-1.15-.37-2.56-.37-4.2s.13-2.96.37-4.07c.26-1.13.65-2,1.23-2.59.58-.61,1.36-.91,2.33-.91s1.66.3,2.22.89c.56.58.97,1.44,1.25,2.57.26,1.12.4,2.49.4,4.14s-.14,3-.42,4.14c-.26,1.13-.69,2.01-1.25,2.62-.56.59-1.31.89-2.22.89l-.02-.02ZM235.86,198.56c.38,0,.7-.14.96-.43.26-.3.46-.73.62-1.31.16-.56.29-1.26.35-2.08s.11-1.74.11-2.78-.03-1.96-.11-2.78-.18-1.5-.34-2.06c-.16-.56-.37-.99-.62-1.29-.27-.29-.58-.43-.96-.43s-.72.14-.97.43c-.27.29-.46.72-.62,1.29-.16.56-.27,1.25-.34,2.06s-.11,1.74-.11,2.78.03,1.96.11,2.78.18,1.52.34,2.08.35,1.01.61,1.31c.26.29.59.43.97.43ZM243.03,199.53c-.3,0-.56-.1-.77-.27-.21-.19-.3-.53-.3-1.02s.1-.81.3-.99c.21-.19.46-.29.77-.29.27,0,.51.1.73.29.22.18.34.51.34.99s-.11.83-.34,1.02c-.21.18-.45.27-.73.27ZM246.35,199.39v-1.39l2.86-4.01c.46-.62.85-1.18,1.15-1.71s.54-1.02.73-1.47c.18-.46.3-.93.37-1.37.08-.45.13-.89.13-1.37,0-.56-.06-1.04-.19-1.44-.11-.4-.29-.72-.54-.94s-.56-.34-.94-.34c-.5,0-.88.14-1.13.43-.26.27-.45.64-.56,1.1-.1.46-.14.94-.14,1.47-.26,0-.51-.05-.75-.13s-.43-.22-.58-.42c-.16-.19-.22-.46-.22-.81,0-.5.13-.94.37-1.36.26-.4.64-.72,1.13-.96.51-.26,1.13-.37,1.89-.37s1.39.16,1.92.46c.53.29.93.7,1.2,1.23.29.53.43,1.13.43,1.85,0,.45-.05.88-.14,1.29-.08.4-.21.8-.37,1.2-.16.38-.37.78-.61,1.18-.24.38-.51.78-.81,1.18-.29.4-.61.83-.96,1.26l-2.83,3.79h3.8c.46,0,.78-.13.96-.4.19-.27.34-.65.43-1.13l.08-.4h.81l-.06,3.53h-7.43l.02.03ZM260.01,199.6c-.75,0-1.41-.26-2-.77-.58-.51-1.04-1.31-1.39-2.36-.34-1.09-.5-2.46-.5-4.14,0-1.26.08-2.38.26-3.37s.45-1.81.78-2.49c.35-.69.78-1.21,1.33-1.58.54-.35,1.18-.54,1.92-.54.64,0,1.17.11,1.58.32.42.21.73.48.94.81.22.34.34.69.34,1.05s-.11.69-.35.89c-.24.19-.58.29-1.02.29,0-.48-.05-.89-.16-1.25-.1-.37-.26-.64-.5-.83-.22-.21-.51-.3-.88-.3-.5,0-.93.24-1.26.7-.35.46-.61,1.15-.78,2.08-.18.91-.29,2.04-.3,3.4.16-.18.37-.35.58-.51.24-.18.5-.32.78-.43.3-.11.64-.16,1.02-.16.97,0,1.76.38,2.35,1.13s.89,1.77.89,3.1c0,.97-.14,1.82-.43,2.57-.27.75-.69,1.34-1.23,1.77-.53.42-1.17.62-1.93.62l-.03-.02ZM260.05,198.56c.37,0,.69-.13.96-.4.26-.27.46-.67.58-1.2.14-.56.21-1.26.21-2.12,0-.8-.06-1.45-.21-1.95-.14-.51-.34-.88-.61-1.12-.26-.26-.59-.37-.99-.37-.34,0-.62.06-.89.21-.26.13-.46.27-.67.46-.18.18-.34.37-.48.54,0,1.01.06,1.89.16,2.64.1.75.24,1.37.42,1.87.18.48.4.85.64,1.1.26.24.56.35.88.35l.02-.02ZM270.19,202.02c-1.07-.5-1.93-1.13-2.59-1.93-.65-.78-1.13-1.77-1.44-2.97-.29-1.18-.43-2.64-.43-4.31s.14-3.12.43-4.3c.3-1.2.78-2.17,1.44-2.96.67-.78,1.53-1.42,2.59-1.92v.88c-.56.43-.99.94-1.33,1.57-.34.61-.58,1.28-.75,2.01-.16.72-.27,1.49-.34,2.28-.05.78-.08,1.6-.08,2.43s.03,1.65.08,2.44c.06.8.16,1.57.34,2.3.16.72.42,1.39.75,2s.78,1.13,1.33,1.55v.93ZM275.54,199.6c-.64,0-1.2-.06-1.66-.21-.46-.14-.83-.34-1.13-.58-.29-.26-.51-.54-.67-.89-.14-.35-.21-.73-.21-1.13,0-.29.05-.54.16-.75.13-.22.29-.38.48-.5.21-.13.45-.19.7-.19.05.65.16,1.23.35,1.73.21.5.5.88.85,1.17.35.27.78.42,1.25.42.69,0,1.23-.22,1.6-.67.37-.46.56-1.09.56-1.92,0-.58-.1-1.07-.3-1.45-.19-.38-.5-.73-.89-1.05s-.91-.64-1.52-.97c-.48-.27-.91-.56-1.26-.85-.37-.3-.67-.64-.91-.99-.24-.35-.42-.77-.54-1.2-.11-.45-.16-.94-.16-1.52,0-.73.16-1.37.48-1.92.34-.56.78-.97,1.33-1.29.56-.3,1.17-.46,1.85-.46s1.28.11,1.74.35c.48.24.85.53,1.1.89.26.35.37.72.37,1.1,0,.45-.13.77-.37.97-.24.19-.59.29-1.05.29,0-.48-.08-.89-.22-1.29s-.35-.73-.64-.97-.65-.37-1.1-.37c-.4,0-.75.11-1.04.3-.27.19-.48.48-.62.85-.14.35-.21.78-.21,1.29s.08.93.22,1.29c.16.37.42.69.78.99.37.3.88.64,1.53.99.67.35,1.23.73,1.68,1.13.46.4.8.86,1.04,1.39s.35,1.17.35,1.92c0,.88-.16,1.63-.5,2.24-.34.59-.8,1.05-1.39,1.37-.58.32-1.26.48-2.01.48v.02ZM285.01,199.6c-.93,0-1.63-.32-2.09-.96-.46-.65-.69-1.69-.69-3.12v-5.03c0-.4-.06-.7-.16-.89-.1-.21-.24-.34-.43-.4-.18-.06-.4-.11-.64-.11h-.08v-.85h3.13v7.22c0,.62.05,1.15.13,1.58.1.42.26.73.5.96.24.21.56.32.97.32.46,0,.83-.14,1.1-.42.27-.29.48-.69.61-1.2.14-.51.21-1.1.21-1.79v-4.3c0-.45-.06-.77-.16-.97-.1-.22-.24-.37-.43-.43-.18-.06-.38-.11-.62-.11h-.06v-.85h3.1v8.87c0,.4.06.7.16.91.13.21.29.35.48.42s.42.08.64.08h.08v.85h-2.81l-.26-1.71h-.08c-.16.37-.32.69-.5.93-.18.24-.38.43-.61.58-.21.14-.43.24-.69.29-.26.06-.51.11-.78.11l-.02.03ZM291.96,199.39v-.85h.14c.26,0,.48-.03.67-.11.19-.06.35-.21.46-.42.13-.22.19-.54.19-.97v-6.52c0-.42-.06-.72-.16-.91-.11-.21-.26-.34-.46-.4-.19-.06-.42-.11-.64-.11h-.11v-.85h2.89l.21,1.71h.08c.19-.48.42-.85.64-1.12.26-.27.53-.48.83-.61.32-.13.67-.19,1.09-.19.88,0,1.55.32,2.01.97.48.65.7,1.69.7,3.12v4.9c0,.43.05.75.14.97.1.21.24.35.42.42.19.06.42.11.64.11h.08v.85h-3.07v-7.2c0-.88-.11-1.58-.35-2.09-.24-.51-.64-.77-1.23-.77-.48,0-.88.16-1.17.5-.27.32-.48.73-.61,1.26-.11.51-.16,1.05-.16,1.65v4.43c0,.42.05.72.14.91.11.19.26.32.46.4.19.06.42.08.64.08h.11v.85h-4.6ZM303.18,201.1c.56-.43.99-.94,1.33-1.55s.58-1.28.75-2c.18-.73.3-1.5.35-2.3.06-.8.08-1.61.08-2.44s-.03-1.65-.08-2.43c-.05-.8-.18-1.57-.35-2.28-.16-.73-.42-1.41-.75-2.01-.34-.61-.78-1.13-1.33-1.57v-.88c1.07.48,1.92,1.12,2.57,1.92.67.78,1.13,1.76,1.44,2.96.3,1.18.46,2.6.46,4.3s-.16,3.13-.46,4.31c-.29,1.2-.77,2.19-1.44,2.97-.65.78-1.5,1.44-2.57,1.93v-.93Z"/>
</svg>