<?xml version="1.0" encoding="UTF-8"?>
<svg id="Layer_1" xmlns="http://www.w3.org/2000/svg" version="1.1" viewBox="0 0 65.2 22.2">
  <!-- Generator: Adobe Illustrator 29.5.1, SVG Export Plug-In . SVG Version: 2.1.0 Build 141)  -->
  <defs>
    <style>
      .st0 {
        fill: none;
      }
    </style>
  </defs>
  <path class="st0" d="M8.5,4.7h3.8l.7-4.3H3.7L0,21.7h5.5l1.6-8.9h3.3l.8-4.1h-3.4l.7-4ZM19,15.9c-.2,1.2-.4,1.9-.6,2.2-.2.3-.5.5-.9.5s-.7-.2-.7-.5c-.1-.3,0-1,.2-2l1.7-9.9c.2-1.1.4-1.8.6-2.1.2-.3.5-.5.9-.5s.6.1.7.4,0,.9-.2,2l-.6,3.7h5.5l.4-2c.3-2,.4-3.4.3-4.4-.2-.9-.7-1.7-1.7-2.4-1-.6-2.3-.9-3.9-.9-1.2,0-2.3.2-3.3.6-1,.4-1.8,1-2.4,1.7-.6.7-1.1,1.4-1.3,2.2-.2.8-.5,1.9-.8,3.4l-1.1,6.2c-.4,2.1-.5,3.6-.3,4.7.2,1,.7,1.9,1.6,2.4.9.6,2.2.9,3.8.9,1.5,0,2.9-.3,4.1-1s2-1.5,2.5-2.4.9-2.5,1.3-4.7l.1-.8h-5.5l-.4,2.7ZM38.9.4l-3,9.9.2-5.3c.1-1.7.1-3.2.1-4.5h-7.1l-3.7,21.3h4.8l2.5-14-.4,14h3.4l4.4-14.4-2.5,14.4h4.8L46.1.5h-7.2v-.1ZM58.1.4l-3,9.9.2-5.3c.1-1.7.1-3.2.1-4.5h-7.1l-3.7,21.3h4.8l2.5-14-.4,14h3.4l4.4-14.4-2.5,14.4h4.8l3.7-21.3h-7.2v-.1Z"/>
</svg>