<?xml version="1.0" encoding="UTF-8"?>
<svg id="Layer_1" xmlns="http://www.w3.org/2000/svg" version="1.1" viewBox="0 0 160 40">
  <!-- Generator: Adobe Illustrator 29.5.1, SVG Export Plug-In . SVG Version: 2.1.0 Build 141)  -->
  <path d="M5.36,4.9C2.06,5.83.58,7.75.58,11.15c0,2.99,1.06,4.43,5.42,7.35,1.2.82,2.47,1.96,2.85,2.54.93,1.48.69,3.57-.55,4.6-1.96,1.72-4.53.48-6.18-2.88-1-2.06-1.72-2.64-2.09-1.68-.1.24.03,1.65.27,3.16l.45,2.68,1.54.48c2.51.72,5.56.62,7.41-.27,2.78-1.37,4.39-4.87,3.57-7.83-.51-1.96-1.72-3.26-4.53-4.94-3.5-2.09-4.39-3.09-4.39-4.94,0-1.96,1.13-3.23,2.85-3.23,1.54,0,2.78,1,3.54,2.92.41,1,.86,1.54,1.27,1.54.65,0,.72-.48.34-3.36-.17-1.44-.34-1.89-.96-2.13-1.44-.55-4.46-.65-6.04-.24v-.02ZM92.13,5.59c-.24.62.03.93.82.93.34,0,.86.24,1.13.55.48.45.55,1.79.55,9.23,0,9.3-.1,9.78-1.75,9.78-.45,0-.65.24-.65.72,0,.72.1.72,6.11.58,5.7-.1,6.18-.17,8-1,4.33-2.03,6.52-5.29,6.76-10.09.27-4.91-1.65-8.41-5.49-10.16-1.68-.76-2.33-.82-8.55-.93-5.7-.1-6.76-.03-6.93.38h0ZM104.6,7.37c2.33,1.24,3.47,3.6,3.71,7.93.27,5.01-1.24,8.82-3.91,9.95-1.68.72-3.78.62-4.6-.21-.65-.65-.69-1.13-.69-9.27,0-8.58,0-8.62.79-8.93.93-.38,3.5-.1,4.7.51v.02ZM66.25,7.82c-1.68,1.2-1.82,1.37-1.82,2.71,0,1.24-.1,1.48-.69,1.48-.62,0-1.37.89-1.37,1.68,0,.21.48.38,1.03.38h1.03v11.74l1,1c1.24,1.24,2.71,1.3,4.77.24,1.75-.96,2.06-2.2.45-1.89-1.85.38-2.09-.38-2.09-6.04v-5.01l1.48-.1c1.27-.1,1.44-.21,1.44-.96s-.17-.86-1.44-.96l-1.48-.1v-2.54c0-1.41-.1-2.61-.24-2.68-.17-.1-1.1.38-2.06,1.06h-.01ZM150.73,7.79c-2.13,1.61-2.23,1.75-1.99,3.09.17,1,.1,1.13-.48,1.13-.76,0-1.89,1.27-1.58,1.79.1.14.55.27,1.03.27h.82v4.7c.03,5.56.31,7.21,1.54,8.27,1.13.96,2.47.96,4.46,0,1.72-.82,1.96-1.79.51-1.85-.48-.03-1.03-.07-1.27-.1-.76-.07-1.13-2.27-1.13-6.59v-4.43h1.34c1.41,0,2.3-.69,1.96-1.54-.14-.34-.69-.51-1.75-.51h-1.58l.07-2.57c.03-1.41,0-2.64-.1-2.75s-.93.38-1.85,1.1h0ZM19.81,11.73c-.48.17-1.61.51-2.57.76-1.92.51-2.37,1.27-1.03,1.85l.86.41v9.2c0,9.54-.07,10.02-1.44,10.02-.38,0-.62.24-.62.69,0,.65.24.69,4.12.69s4.12-.07,4.12-.62c0-.34-.41-.76-1.03-1-.69-.25-1.03-1.31-1.03-3.16v-2.78h1.2c2.64,0,6.38-2.85,7.62-5.77.82-1.96.72-5.11-.21-7.04-1.54-3.16-4.39-4.05-7.07-2.2l-1.37.93-.1-.93c-.17-1.27-.41-1.48-1.44-1.06h0ZM24.44,14.96c2.85,1.85,2.37,10.71-.62,11.05-.55.07-1.34-.14-1.82-.45-.82-.51-.82-.62-.82-5.49,0-4.36.07-4.98.62-5.29.86-.51,1.68-.45,2.64.17h0ZM134.46,11.73c-.48.17-1.61.51-2.57.76-1.82.48-2.44,1.34-1.27,1.72.38.14.79.58.89,1s.21,4.57.21,9.23c0,7.24-.07,8.55-.55,8.99-.27.31-.76.55-1.03.55s-.48.31-.48.69c0,.65.24.69,4.12.69s4.12-.03,4.12-.69c0-.45-.24-.69-.62-.69-1.13,0-1.44-.72-1.44-3.5v-2.68h1.13c2.37-.03,5.46-2.09,6.97-4.67,1.1-1.85,1.48-5.22.82-7.14-.55-1.75-2.2-3.5-3.64-3.98-1.34-.45-2.61-.14-4.22,1.03-1.27.89-1.3.89-1.34-.38-.03-1.3-.03-1.34-1.1-.93ZM139.2,15.27c1.3,1.1,1.96,3.6,1.65,6.42-.34,3.54-1.96,5.11-3.95,4.02-.59-.34-.93-2.22-1-5.63-.07-3.84.03-5.15.34-5.39.82-.51,1.92-.27,2.95.58h.01ZM38,12.11c-1.68.55-4.22,3.19-4.74,4.91-1.3,4.46.76,9.17,4.6,10.44,1.92.65,4.67.27,6.28-.86,3.19-2.2,4.26-7.41,2.27-11.09-1.61-2.99-5.25-4.46-8.41-3.4ZM41.95,14.79c.93,1.58,1.2,8.1.41,10.02-.62,1.41-1.92,1.99-2.88,1.24-1.48-1.24-2.44-5.6-1.99-9.13.17-1.48.48-2.16,1.2-2.92,1.2-1.2,2.23-.93,3.26.79ZM52.59,12.32c-3.57.96-3.6,1-2.47,1.89l.96.76-.1,5.32c-.1,5.11-.14,5.29-.86,5.63-.45.17-.79.62-.79.93,0,.55.41.62,4.12.62s4.12-.03,4.12-.69c0-.48-.24-.69-.79-.69-1.44,0-1.61-.58-1.61-4.98,0-3.6.07-4.26.62-4.74.79-.72,1.58-.76,2.13-.07.69.82,1.68.58,2.4-.62.86-1.41.86-2.47,0-3.33-1.06-1.06-2.03-.86-3.67.86l-1.48,1.54v-1.54c0-.86-.1-1.51-.24-1.51-.17.03-1.2.31-2.33.62h0ZM76.21,12.32c-1.75.82-2.54,1.96-2.75,3.95-.24,2.09.72,3.57,3.5,5.32,2.57,1.61,3.26,2.75,2.4,4.02-.31.48-.86.82-1.34.82-1.13,0-2.81-1.48-3.36-2.92-.27-.79-.65-1.2-1.03-1.2-.55,0-.62.24-.41,1.96.27,2.75.24,2.68,1.99,3.19,3.95,1.1,7.55-.82,7.96-4.33.27-2.03-.69-3.4-3.5-5.11-1.3-.79-2.54-1.79-2.78-2.23-.58-1.2-.07-2.2,1.27-2.33,1.27-.14,2.13.51,2.75,2.03.27.62.69,1,1.1,1,.62,0,.69-.17.48-1.06-.1-.58-.21-1.51-.21-2.03,0-1.1-.38-1.3-2.85-1.54-1.34-.14-2.13-.03-3.23.48v-.02ZM120.49,12.39c-1.72.86-3.06,2.3-3.98,4.39-1,2.27-.76,6.28.55,8.2,2.3,3.54,7.17,3.71,9.99.41,1.48-1.79,1.03-2.4-1.03-1.37-1.92,1-3.09.89-4.43-.45-.96-.96-2.2-3.81-1.82-4.19.07-.07,1.85-.24,3.98-.38,4.57-.27,4.87-.48,4.26-2.75-.58-2.13-1.3-3.16-2.85-3.95-1.68-.86-2.88-.82-4.67.07v.02ZM123.65,14.44c.31.58.51,1.44.45,1.96-.1.86-.21.93-2.13,1.03l-2.03.1.21-1.27c.48-2.85,2.44-3.88,3.5-1.82Z"/>
</svg>