<?xml version="1.0" encoding="UTF-8"?>
<svg id="Layer_1" xmlns="http://www.w3.org/2000/svg" version="1.1" viewBox="0 0 96 30">
  <!-- Generator: Adobe Illustrator 29.5.1, SVG Export Plug-In . SVG Version: 2.1.0 Build 141)  -->
  <path d="M28.2,30c.23-5.65-.49-11.66.33-17.23,2.13-7.23,12.56-7.11,14.8-.07,2.42-6.37,11.06-7.36,14.4-1.23,1.28,2.98.71,7.42.66,10.63-.31.17-.66,0-.95,0-.92-.01-1.78.22-2.7,0-.52.07-.54.18-1.05,0-.35.07-.34.23-.7,0-.1,0-.24.1-.32.03l-.12-.56c-.55-.06-.89.47-1.39.62-3.43,1.08-6.9-1.2-7.63-4.59-.03-.02-.15-.01-.19,0-1,3.1-3.83,5.78-7.37,5.06-.61-.1-1.17-.45-1.8-.39v7.72h-5.97ZM34.59,16.37c.57.37,1.2.77,1.9.43.1-.04.65-.38.73-.44.4-.35.41-1.43.33-1.92-1.32-2.82-4.52-.52-2.96,1.93h0ZM50.6,13.18c-2.94.61-.98,5.3,1.42,3.23,1.19-1.06.25-3.5-1.42-3.23ZM74.93,7.97c.29-.15.09,4.33.15,4.38,3.71-8.57,16.37-5.33,14.92,4.11-1.19,7.66-11.95,8.49-14.83,1.5-.4-.05.03,3.81-.2,4.18h-5.84s-.12-.41-.11-.48c0-.12.11-.2.1-.33-.17-.31-.11-.78-.06-1.11.03-3.95-.08-8,0-11.93.02-.13.04-.23.15-.32h5.74-.02ZM83.66,13.71c-2.96-2.25-4.37,3.3-.9,3.18,1.33-.31,1.81-2.19.9-3.18ZM6.43,16.21c-.22,1.56,1.35,2.82,2.8,2.12l.56-.84c1.65-.29,3.86-.23,5.53-.05-3.92,11-19.83,3.18-13.6-6.78,3.24-5.12,12.18-4,13.69,1.98,1.01,4.24-1.76,3.7-4.86,3.63-1.37,0-2.76.03-4.12-.06ZM6.49,13.33c1.04.09,2.07.11,3.11,0,.34-.16.17-.42.07-.69-.29-1.24-1.82-1.72-2.72-.79-.17.18-.72,1.32-.46,1.48ZM27.2,8.4c-.02-.12-.36-.26-.5-.32-3.65-1.48-9.88-.98-10.45,3.83-.35,6.03,5.85,4.05,5.68,5.84-.1.91-1.62.57-2.25.56-1.09-.15-2.05-.75-3.07-1.11l.09,4.5c2.45,1.15,5.99,1.53,8.5.3,3.42-1.53,3.73-7.58-.2-8.59-.69-.32-2.81-.2-2.94-1.04,0-1.34,2.95-.51,3.74-.34.22.06,1.29.55,1.42.43v-4.06h-.02ZM60.68,10.1c-2.44,2.72-2.29,8.58.86,10.72,2.03,1.38,4.31,1.39,6.69,1.35l.03-5.32c-.54-.04-1.49.03-2.05-.05-.43-.05-1.16-.74-1.24-1.15-.11-.56-.08-1.29.28-1.74.82-1.01,1.95-.46,3.04-.67v-5.19c-2.67-.33-5.71-.01-7.61,2.07v-.02ZM73.07.24c-3.36-1.37-5.42,3.48-3.12,5.72,4.23,3.12,7.47-3.7,3.12-5.72ZM91.31,13.26c-.24-.22-.54-.69-.67-.99-.97-2.22.74-4.98,3.3-4.06,2.56.92,2.25,4.95-.38,5.61-.76.19-1.67-.03-2.25-.56ZM94.53,12.55c1.82-1.92-.67-5.21-2.86-3.47-.8.63-1.02,1.88-.7,2.81.04.11.58.81.68.9.54.49,1.63.72,2.26.33.18-.11.47-.41.63-.57h0ZM93.81,11.43c-.03-.23.5-.54.38-1.13-.12-.76-.93-.91-1.58-.88-1.09.1-.46,1.45-.68,2.14l.06.9h.85c.17-.15.06-.43.09-.64l.44.64h.97l-.52-1.04h-.01Z"/>
</svg>