<?xml version="1.0" encoding="UTF-8"?>
<svg id="Layer_1" xmlns="http://www.w3.org/2000/svg" version="1.1" viewBox="0 0 320 112">
  <!-- Generator: Adobe Illustrator 29.5.1, SVG Export Plug-In . SVG Version: 2.1.0 Build 141)  -->
  <path d="M204.87,52.3c-14.25,1.73-16.05-13.64-13.25-24.13,5.62-21.12,34.6-26.51,40.15-2.27,7.2,31.46-27.64,63.97-50.9,79.94-1.31.9-8.82,5.97-9.7,5.98-2.28.01-.56-1.92-.33-2.78.76-2.82-2.16-4.97-4.09-6.55-12.86-10.55-29.02-17.69-31.77-36.54-2.73-18.74,8.46-26.67,23.09-34.12.32-.16.76-.26.83-.68-11.83,1.37-23.16-4.3-34.48-6.98-8.35-1.98-23.48-4.39-30.53,1.6-5.41,4.6-2.43,14.09,1.92,18.47,4.89,4.92,15.42,7.12,18.68-.62.47-1.11.67-4.73,1.8-4.7.63.01,3.83,1.36,4.61,1.73,13.85,6.65,17.73,25.28-.06,29.43-14.18,3.31-28.03-4.02-35.15-16.26-9.81-16.85-2.86-33.34,16.89-35.61,15.71-1.81,29.93,4.5,44.64,8.24,5.33,1.35,16.77,3.85,21.18.01,3.99-3.47.05-9.77-3.81-6.56-.74.62-1.43,2.54-2.58,1.52-1.91-1.69-2.77-7.24-2.56-9.69.96-10.78,14.15-16.89,18.66-5.17,5.6,14.54-7.8,19.71-12.46,31.2-5.5,13.56-.82,30.74,5.5,43.24,2.47,4.89,8.43,13.22,8.92,18.34.12,1.22-.15,2.05-.18,3.08,0,.32-.04.79.36.88.27.06,3.74-2.98,4.27-3.44,7.35-6.38,15.1-14.53,20.88-22.36,5.5-7.46,15.17-23.46,12.59-32.87-1.51-5.5-7.8-4.88-10.73-1.07-2.09,2.72-1.92,5.58-2.4,8.75Z"/>
  <path d="M278.21,20.15l-8.75,22.82c-.37,2.08,4.98.87,6.23.42,5.28-1.93,11.49-7.04,15.29-11.15.64-.69,1.63-2.68,2.49-2.77,1.07-.11,1.12.8.76,1.61l-10.96,28.7c-1.73,1.56-2.21-2.67-2.62-3.72-2.12-5.57-5.64-10.38-12.34-9.32l-9.12,23.88c.22.66,1.48.48,2.03.45,11.78-.76,29.94-11.99,39.61-18.78,2.02-1.42,6.19-5.22,8.02-6.03.65-.29,1.36-.55,1.79.19l-10.72,26.13c-36.03.33-71.81,9.27-103.01,27.13-.34-.32,1.04-1.19,1.25-1.37,10.85-9.08,20.41-17.65,28.06-29.78,7.93-12.58,13.97-30.58,8.98-45.29-.36-1.05-2.4-4.74-2.09-5.36.09-.17.27-.31.43-.42l85.74-.08.7,1.11-10.71,26.23-.68.32c-.33-.04-.61-.2-.81-.47-.72-.97-1.77-4.39-2.48-5.78-3.57-6.97-9.96-15.66-17.78-18.03-3.09-.93-6.14-.71-9.33-.65Z"/>
  <path d="M56.7,68.56l-.18-1.55L31.28,22.85c-.24-.24-.53-.23-.83-.27-2.83-.38-8.92-.03-11.72.7-4.19,1.1-6.22,3.24-4.62,7.65.51,1.41,2.76,3.49.36,3.8L.13,18.73c-.35-.58.08-1.11.62-1.32h86.65c2.01,1.17-.78,2.23-1.74,3.11-23.28,21.37,7.15,59.79,35.26,52.89,4.01-.98,6.97-3.11,10.31-5.36.33.08,1.61,4.41,1.95,5.22,3.08,7.33,9.05,13.97,14.86,19.29.66.6,4.81,3.67,4.82,3.99,0,.29-.48.4-.84.3-.75-.22-2.91-1.75-3.83-2.23-20.76-10.75-43.7-17.53-67.07-19.69-9.13-.84-19.51-1.4-28.56.08-2.33.38-4.58,1.12-6.9,1.53l-24.58-23.09c-.62-1.18,3.07-.98,3.72-.69.58.27,2.56,2.65,3.31,3.3,6.43,5.65,14.15,10.02,22.59,11.84.93.2,5.67,1.23,6.03.65Z"/>
</svg>